# xmcd
#
# Track frame offsets: 
#        150
#        18903
#        33706
#        49556
#        62845
#        79064
#        94500
#        100804
#        118962
#        132254
#        139176
#
# Disc length: 2069 seconds
#
# Revision: 0
# Processed by: cddbd v1.4b42PL1 Copyright (c) Steve Scherf et al.
# Submitted via: ExactAudioCopy v0.90a11
#
DISCID=9108130b
DTITLE=J.J. Cale - Compilation
DYEAR=1900
DGENRE=
TTITLE0=Rapido Interview (1989)
TTITLE1=After Midnight (Rocksteady 1990)
TTITLE2=Tijuana (Rocksteady 1990)
TTITLE3=Hold On (Rocksteady 1990)
TTITLE4=No Time (Rocksteady 1990)
TTITLE5=Magnolia (Rocksteady 1990)
TTITLE6=Cocaine (Rocksteady 1990)
TTITLE7=Call Me The Breeze (J Holland 1994)
TTITLE8=Ain't Love Funny (J Holland 1994)
TTITLE9=Interview (J Holland 1994)
TTITLE10=Cocaine (J Holland 1994)
EXTD=
EXTT0=
EXTT1=
EXTT2=
EXTT3=
EXTT4=
EXTT5=
EXTT6=
EXTT7=
EXTT8=
EXTT9=
EXTT10=
PLAYORDER=
